<?xml version="1.0" encoding="utf-8"?>
<!-- Generator: Adobe Illustrator 25.4.1, SVG Export Plug-In . SVG Version: 6.00 Build 0)  -->
<svg version="1.1" id="Layer_1" xmlns="http://www.w3.org/2000/svg" xmlns:xlink="http://www.w3.org/1999/xlink" x="0px" y="0px"
	 viewBox="0 0 950 950" style="enable-background:new 0 0 950 950;" xml:space="preserve">
<style type="text/css">
	.st0{display:none;}
	.st1{display:inline;fill:#2E3192;}
	.st2{fill:#2E3192;}
	.st3{fill:#0071BC;}
	.st4{display:inline;}
</style>
<g class="st0">
	<path class="st1" d="M196.92,706.95h-6.32l-9.37-25.3l-7.03-22.49l-7.26,22.6l-9.37,25.18h-6.32l-20.61-57.85h6.32l17.45,51.18
		l17.68-51.18h4.1l17.57,51.18l17.33-51.18h6.32L196.92,706.95z"/>
	<path class="st1" d="M282.41,649.09c0,19.32,0,38.53,0,57.85h-5.74v-12.3c-5.62,9.02-14.29,13.23-23.66,13.23
		c-16.16,0-29.39-12.18-29.39-29.86c0-17.68,13.23-29.63,29.39-29.63c9.37,0,18.85,4.33,23.66,13.35v-12.65H282.41z M229.36,678.02
		c0,14.52,10.54,24.24,23.66,24.24c32.21,0,32.21-48.37,0-48.37C239.9,653.9,229.36,663.5,229.36,678.02z"/>
	<path class="st1" d="M303.73,624.97v81.98h-5.74v-81.98H303.73z"/>
	<path class="st1" d="M325.51,624.97v81.98h-5.74v-81.98H325.51z"/>
	<path class="st1" d="M338.27,678.02c0-17.33,13.12-29.86,29.39-29.86c16.28,0,30.8,9.95,28.58,32.56h-52.11
		c1.17,13.58,11.59,21.43,23.54,21.43c7.61,0,16.51-3.04,20.85-8.78l4.1,3.28c-5.62,7.38-15.69,11.13-24.94,11.13
		C351.39,707.77,338.27,696.41,338.27,678.02z M391.09,675.68c-0.12-14.29-9.49-22.25-23.42-22.25c-11.95,0-22.25,8.08-23.54,22.25
		H391.09z"/>
	<path class="st1" d="M421.89,631.64v17.45h19.67v4.8h-19.67v35.25c0,7.85,1.64,13.35,10.66,13.35c2.81,0,5.97-0.94,8.9-2.34
		l1.99,4.68c-3.63,1.76-7.26,2.93-10.89,2.93c-12.3,0-16.28-7.26-16.28-18.62V653.9h-12.3v-4.8h12.3v-16.86L421.89,631.64z"/>
	<path class="st1" d="M490.75,664.55c-4.1-3.86-8.78-5.15-14.29-5.15c-6.79,0-10.54,2.11-10.54,5.74c0,3.75,3.4,5.86,10.77,6.32
		c10.89,0.7,24.71,3.16,24.71,18.5c0,10.19-8.32,18.97-24.83,18.97c-9.13,0-18.27-1.52-26.7-10.31l7.03-10.19
		c4.1,4.57,13.47,7.96,19.91,8.08c5.39,0.12,10.42-2.69,10.42-6.91c0-3.98-3.28-5.62-11.48-6.09c-10.89-0.82-23.89-4.8-23.89-17.92
		c0-13.35,13.82-18.04,24.36-18.04c9.02,0,15.81,1.76,22.49,7.61L490.75,664.55z"/>
	<path class="st1" d="M522.72,683.17c0.94,7.14,7.14,12.3,17.22,12.3c5.27,0,12.18-1.99,15.46-5.39l9.13,9.02
		c-6.09,6.32-16.04,9.37-24.83,9.37c-19.91,0-31.74-12.3-31.74-30.8c0-17.57,11.95-30.21,30.68-30.21
		c19.32,0,31.39,11.95,29.16,35.72H522.72z M554.11,671.34c-0.94-7.5-6.79-11.24-14.99-11.24c-7.73,0-14.05,3.75-16.16,11.24H554.11
		z"/>
	<path class="st1" d="M628.36,699.57c-6.68,6.56-13.7,9.13-22.25,9.13c-16.75,0-30.68-10.07-30.68-30.57
		c0-20.49,13.94-30.57,30.68-30.57c8.2,0,14.52,2.34,20.85,8.55l-9.02,9.49c-3.4-3.05-7.61-4.57-11.59-4.57
		c-9.6,0-16.63,7.03-16.63,17.1c0,11.01,7.5,16.86,16.4,16.86c4.57,0,9.13-1.29,12.65-4.8L628.36,699.57z"/>
	<path class="st1" d="M649.32,649.21v30.21c0,8.78,4.8,15.46,13.94,15.46c8.78,0,14.76-7.38,14.76-16.16v-29.51h14.17v57.85h-12.77
		l-0.94-7.85c-5.97,5.86-11.48,8.67-19.56,8.67c-13.82,0-23.89-10.42-23.89-28.34v-30.33H649.32z"/>
	<path class="st1" d="M718.06,649.21l1.05,6.68c4.45-7.14,10.42-8.2,16.28-8.2c5.97,0,11.71,2.34,14.87,5.5l-6.44,12.41
		c-2.93-2.46-5.62-3.75-10.31-3.75c-7.5,0-14.4,3.98-14.4,14.64v30.45h-14.29v-57.74H718.06z"/>
	<path class="st1" d="M767.84,683.17c0.94,7.14,7.14,12.3,17.22,12.3c5.27,0,12.18-1.99,15.46-5.39l9.13,9.02
		c-6.09,6.32-16.04,9.37-24.83,9.37c-19.91,0-31.74-12.3-31.74-30.8c0-17.57,11.95-30.21,30.68-30.21
		c19.32,0,31.39,11.95,29.16,35.72H767.84z M799.22,671.34c-0.94-7.5-6.79-11.24-14.99-11.24c-7.73,0-14.05,3.75-16.16,11.24H799.22
		z"/>
</g>
<g>
	<path class="st2" d="M389.62,369.64v-71.81c0-47.08,38.3-85.38,85.38-85.38s85.38,38.3,85.38,85.38v71.81h41.86v-71.81
		c0-70.16-57.08-127.24-127.24-127.24s-127.24,57.08-127.24,127.24v71.81H389.62z"/>
	<g>
		<path class="st3" d="M558.95,494.21c-14.25,0-25.79-11.55-25.79-25.79V435.1c0-14.25,11.55-25.79,25.79-25.79h83.49v-58.42
			c0-19.4-15.73-35.13-35.13-35.13H342.69c-19.4,0-35.13,15.73-35.13,35.13v201.74c0,19.4,15.73,35.13,35.13,35.13h264.63
			c19.4,0,35.13-15.73,35.13-35.13v-58.42H558.95z"/>
		<circle class="st2" cx="581.34" cy="451.76" r="23.88"/>
	</g>
</g>
<g class="st0">
	<g class="st4">
		<path class="st2" d="M206.05,735.72c-1.92-3.09-5.01-3.54-7.99-3.58c-3.09,0-7.99,1.13-7.99,5.35c0,3.35,3.62,4.15,8.07,4.98
			c5.09,0.98,10.37,1.88,10.37,7.58c-0.04,5.96-6.03,7.39-10.44,7.39c-4.11,0-8.78-1.7-10.82-5.73l1.81-0.9
			c1.62,3.2,5.77,4.79,9.01,4.79c3.24,0,8.41-0.9,8.41-5.58c0.04-3.96-4.33-4.82-8.67-5.65c-4.82-0.94-9.76-1.92-9.76-6.78
			c-0.11-5.58,5.69-7.31,10.03-7.31c3.77,0,7.05,0.6,9.65,4.49L206.05,735.72z"/>
	</g>
	<g class="st4">
		<path class="st2" d="M246.38,730.63v24.46h14.85v1.92h-16.89v-26.38H246.38z"/>
	</g>
	<g class="st4">
		<path class="st2" d="M321.32,743.86c-0.04,6.94-4.45,13.61-13.31,13.61s-13.31-6.71-13.31-13.68c0-7.09,4.41-13.57,13.31-13.57
			C316.91,730.22,321.36,736.74,321.32,743.86z M296.71,743.82c0.04,5.96,3.81,11.76,11.31,11.76c7.54,0,11.34-5.8,11.34-11.76
			c0-6.11-3.77-11.72-11.34-11.72C300.44,732.1,296.67,737.6,296.71,743.82z"/>
	</g>
	<g class="st4">
		<path class="st2" d="M378.46,735.49c-2.3-2.26-5.5-3.39-8.48-3.39c-7.73,0-11.68,5.65-11.65,11.76c0,6.22,3.96,11.57,11.65,11.57
			c2.83,0,5.77-0.98,8.03-3.05v-7.39h-9.2v-1.77h11.12v9.88c-2.75,2.75-6.03,4.26-9.95,4.26c-8.97,0-13.61-6.26-13.61-13.46
			c-0.04-8.25,5.58-13.64,13.61-13.64c3.47,0,6.97,1.32,9.65,3.96L378.46,735.49z"/>
	</g>
	<g class="st4">
		<path class="st2" d="M437.98,757.02l-2.9-6.48h-15.75l-2.86,6.48h-2.19l11.83-26.38h2.22l11.83,26.38H437.98z M434.29,748.65
			l-7.09-16.06l-7.09,16.06H434.29z"/>
	</g>
	<g class="st4">
		<path class="st2" d="M476.02,730.63l17.75,21.82v-21.82h2v26.38h-0.79l-17.79-21.79v21.79h-2.03v-26.38H476.02z"/>
	</g>
	<g class="st4">
		<path class="st2" d="M594,757.02v-11.99h-16.81v11.99h-2.03v-26.38h2.03v12.55H594v-12.55h2.04v26.38H594z"/>
	</g>
	<g class="st4">
		<path class="st2" d="M635.39,742.81h15.45v1.85h-15.45v10.4h16.66v1.96h-18.66v-26.38h18.2v1.92h-16.21V742.81z"/>
	</g>
	<g class="st4">
		<path class="st2" d="M709.16,757.02h-2.68l-9.12-9.99h-7.2v9.99h-2.03v-26.38c3.88,0,7.73,0,11.61,0c5.73,0,8.63,4.11,8.67,8.22
			c0.04,4.3-2.79,8.07-8.56,8.07L709.16,757.02z M690.16,745.11h9.35c4.6,0,6.63-2.6,6.67-6.29c0.04-3.09-2.07-6.29-6.45-6.29h-9.57
			V745.11z"/>
	</g>
	<g class="st4">
		<path class="st2" d="M746.1,742.81h15.45v1.85H746.1v10.4h16.66v1.96H744.1v-26.38h18.2v1.92H746.1V742.81z"/>
	</g>
</g>
</svg>
